<?xml version="1.0" ?><svg height="24" id="svg8" version="1.1" viewBox="0 0 6.3499998 6.3500002" width="24" xmlns="http://www.w3.org/2000/svg" xmlns:cc="http://creativecommons.org/ns#" xmlns:dc="http://purl.org/dc/elements/1.1/" xmlns:inkscape="http://www.inkscape.org/namespaces/inkscape" xmlns:rdf="http://www.w3.org/1999/02/22-rdf-syntax-ns#" xmlns:sodipodi="http://sodipodi.sourceforge.net/DTD/sodipodi-0.dtd" xmlns:svg="http://www.w3.org/2000/svg"><defs id="defs2"/><g id="layer1"><path d="M 3.1778424,0.39377824 A 0.26460998,0.26460998 0 0 0 3.0119609,0.45062231 L 0.63122779,2.302189 a 0.26458352,0.26458352 0 0 0 -0.047026,0.3710367 0.26458352,0.26458352 0 0 0 0.3731039,0.046509 l 0.11317141,-0.08785 v 3.058728 A 0.26460945,0.26460945 0 0 0 1.3340272,5.9562294 H 2.4781435 V 5.3919229 c 0,-0.2931599 0.2360082,-0.5291667 0.5291665,-0.5291667 h 0.33538 c 0.2931583,0 0.5291669,0.2360068 0.5291667,0.5291667 V 5.9562294 H 5.0159729 A 0.26460945,0.26460945 0 0 0 5.2795228,5.6906126 v -3.060795 l 0.1152385,0.089917 A 0.26458352,0.26458352 0 0 0 5.7657981,2.6732257 0.26458352,0.26458352 0 0 0 5.7187724,2.302189 L 3.3380391,0.45062231 A 0.26460998,0.26460998 0 0 0 3.1778424,0.39377824 Z" id="path1283" style="color:#000000;font-style:normal;font-variant:normal;font-weight:normal;font-stretch:normal;font-size:medium;line-height:normal;font-family:sans-serif;font-variant-ligatures:normal;font-variant-position:normal;font-variant-caps:normal;font-variant-numeric:normal;font-variant-alternates:normal;font-variant-east-asian:normal;font-feature-settings:normal;font-variation-settings:normal;text-indent:0;text-align:start;text-decoration:none;text-decoration-line:none;text-decoration-style:solid;text-decoration-color:#000000;letter-spacing:normal;word-spacing:normal;text-transform:none;writing-mode:lr-tb;direction:ltr;text-orientation:mixed;dominant-baseline:auto;baseline-shift:baseline;text-anchor:start;white-space:normal;shape-padding:0;shape-margin:0;inline-size:0;clip-rule:nonzero;display:inline;overflow:visible;visibility:visible;opacity:1;isolation:auto;mix-blend-mode:normal;color-interpolation:sRGB;color-interpolation-filters:linearRGB;solid-color:#000000;solid-opacity:1;vector-effect:none;fill:#646464;fill-opacity:1;fill-rule:nonzero;stroke:none;stroke-width:0.529167;stroke-linecap:butt;stroke-linejoin:round;stroke-miterlimit:4;stroke-dasharray:none;stroke-dashoffset:0;stroke-opacity:1;paint-order:stroke fill markers;color-rendering:auto;image-rendering:auto;shape-rendering:auto;text-rendering:auto;enable-background:accumulate;stop-color:#000000;stop-opacity:1"/></g></svg>