<?xml version="1.0" ?><svg enable-background="new 0 0 32 32" version="1.1" viewBox="0 0 32 32" xml:space="preserve" xmlns="http://www.w3.org/2000/svg" xmlns:xlink="http://www.w3.org/1999/xlink"><g id="Outline_Filled_copy"><g><polygon fill="#FF00FF" points="24.359,2.038 24.359,7.641 29.962,7.641   "/><polygon fill="#FFFFFF" points="24.772,1.625 1.625,1.625 1.625,30.375 30.375,30.375 30.375,7.228   "/><g><polygon fill="#64646" points="24.359,2.038 24.359,7.641 29.962,7.641    "/><path d="M24.358,2.625l5.017,5.017v21.733H2.625V2.625H24.358 M24.772,1.625H1.625v28.75h28.75V7.228L24.772,1.625L24.772,1.625z     "/></g><path d="M22.359,4.623v4.019v1h1h4.015v17.731H4.623V4.623H22.359 M23.359,3.623H3.623v24.75h24.75V8.641h-5.015    V3.623L23.359,3.623z" fill="#64646"/></g><g><path d="M24.882,12.135c0,0-0.177-1.333-0.72-1.92c-0.69-0.769-1.462-0.774-1.816-0.818C19.809,9.2,16.004,9.2,16.004,9.2h-0.009    c0,0-3.805,0-6.341,0.197C9.3,9.441,8.528,9.445,7.838,10.215c-0.543,0.587-0.72,1.92-0.72,1.92s-0.181,1.564-0.181,3.129v1.466    c0,1.566,0.181,3.13,0.181,3.13s0.177,1.333,0.72,1.919c0.69,0.769,1.595,0.746,1.999,0.827C11.287,22.754,16,22.8,16,22.8    s3.809-0.007,6.346-0.201c0.354-0.045,1.126-0.05,1.816-0.819c0.543-0.586,0.72-1.919,0.72-1.919s0.181-1.565,0.181-3.13v-1.466    C25.063,13.699,24.882,12.135,24.882,12.135z M13.736,19.4v-6.8l5.666,3.4L13.736,19.4z"/></g></g></svg>